<?xml version="1.0" encoding="UTF-8" standalone="no"?>
<svg
   xmlns:dc="http://purl.org/dc/elements/1.1/"
   xmlns:cc="http://creativecommons.org/ns#"
   xmlns:rdf="http://www.w3.org/1999/02/22-rdf-syntax-ns#"
   xmlns:svg="http://www.w3.org/2000/svg"
   xmlns="http://www.w3.org/2000/svg"
   xmlns:sodipodi="http://sodipodi.sourceforge.net/DTD/sodipodi-0.dtd"
   xmlns:inkscape="http://www.inkscape.org/namespaces/inkscape"
   width="64px"
   height="64px"
   viewBox="0 0 64 64"
   version="1.1"
   id="svg8"
   inkscape:version="1.0.1 (3bc2e813f5, 2020-09-07)"
   sodipodi:docname="avatars.svg">
  <defs
     id="defs2">
    <marker
       style="overflow:visible"
       id="marker1393"
       refX="0.0"
       refY="0.0"
       orient="auto"
       inkscape:stockid="Arrow1Lstart"
       inkscape:isstock="true">
      <path
         transform="scale(0.8) translate(12.5,0)"
         style="fill-rule:evenodd;stroke:#fdbdbd;stroke-width:1pt;stroke-opacity:1;fill:#fdbdbd;fill-opacity:1"
         d="M 0.0,0.0 L 5.0,-5.0 L -12.5,0.0 L 5.0,5.0 L 0.0,0.0 z "
         id="path1391" />
    </marker>
    <marker
       style="overflow:visible"
       id="marker1383"
       refX="0.0"
       refY="0.0"
       orient="auto"
       inkscape:stockid="Arrow1Lstart"
       inkscape:isstock="true">
      <path
         transform="scale(0.8) translate(12.5,0)"
         style="fill-rule:evenodd;stroke:#fdbdbd;stroke-width:1pt;stroke-opacity:1;fill:#fdbdbd;fill-opacity:1"
         d="M 0.0,0.0 L 5.0,-5.0 L -12.5,0.0 L 5.0,5.0 L 0.0,0.0 z "
         id="path1381" />
    </marker>
    <marker
       style="overflow:visible"
       id="marker1309"
       refX="0.0"
       refY="0.0"
       orient="auto"
       inkscape:stockid="Arrow1Lstart"
       inkscape:isstock="true">
      <path
         transform="scale(0.8) translate(12.5,0)"
         style="fill-rule:evenodd;stroke:#fdbdbd;stroke-width:1pt;stroke-opacity:1;fill:#fdbdbd;fill-opacity:1"
         d="M 0.0,0.0 L 5.0,-5.0 L -12.5,0.0 L 5.0,5.0 L 0.0,0.0 z "
         id="path1307" />
    </marker>
    <marker
       style="overflow:visible"
       id="Arrow1Lstart"
       refX="0.0"
       refY="0.0"
       orient="auto"
       inkscape:stockid="Arrow1Lstart"
       inkscape:isstock="true">
      <path
         transform="scale(0.8) translate(12.5,0)"
         style="fill-rule:evenodd;stroke:#000000;stroke-width:1.0pt"
         d="M 0.0,0.0 L 5.0,-5.0 L -12.5,0.0 L 5.0,5.0 L 0.0,0.0 z "
         id="path1021" />
    </marker>
  </defs>
  <sodipodi:namedview
     id="base"
     pagecolor="#ffffff"
     bordercolor="#666666"
     borderopacity="1.0"
     inkscape:pageopacity="0.0"
     inkscape:pageshadow="2"
     inkscape:zoom="4"
     inkscape:cx="31.716382"
     inkscape:cy="22.101746"
     inkscape:document-units="px"
     inkscape:current-layer="layer4"
     inkscape:window-width="1323"
     inkscape:window-height="851"
     inkscape:window-x="39"
     inkscape:window-y="29"
     inkscape:window-maximized="0"
     inkscape:document-rotation="0"
     showgrid="false"
     inkscape:snap-global="true"
     inkscape:snap-page="true"
     showguides="false" />
  <metadata
     id="metadata5">
    <rdf:RDF>
      <cc:Work
         rdf:about="">
        <dc:format>image/svg+xml</dc:format>
        <dc:type
           rdf:resource="http://purl.org/dc/dcmitype/StillImage" />
        <dc:title></dc:title>
      </cc:Work>
    </rdf:RDF>
  </metadata>
  <g
     inkscape:label="Layer 1"
     inkscape:groupmode="layer"
     id="layer1"
     style="display:inline">
    <path
       id="rect1575"
       style="fill:#d25eb2;fill-opacity:1;stroke:none;stroke-width:1.5;stroke-linecap:round;stroke-miterlimit:4;stroke-dasharray:none;stroke-dashoffset:0;stroke-opacity:1"
       d="m 33.65625,4.3007812 c -2.69273,-0.062165 -5.452111,1.4936126 -6.859375,3.8320313 l -0.01563,0.023437 -0.01563,0.023437 c -1.199949,1.6901573 -1.920043,3.9185705 -1.908203,6.0507815 0.01179,2.123014 0.726396,4.119741 2.335937,5.537109 2.043993,1.400263 4.17179,2.724928 6.480469,3.160156 C 39.132349,23.728105 45.365651,20.085485 46.648438,14.625 47.05057,12.596572 46.395071,10.683542 45.128906,9.0722656 43.859796,7.4572405 41.973141,6.1889059 40.083984,5.5839844 h -0.0039 l -0.0059,-0.00195 C 38.955471,5.2067006 37.779467,5.0039189 36.609375,5.0097656 l -0.175781,0.00195 -0.160156,-0.078125 C 35.443271,4.522451 34.553827,4.3215031 33.65625,4.3007812 Z m 0.773438,25.0332028 c -0.442487,0.0029 -0.890184,0.02917 -1.341797,0.08008 C 18.767584,32.961231 8.8587121,48.51946 10.767578,63.03125 12.961957,63.330911 15.139127,63.684205 17.310547,64 h 31.644531 c 0.615874,-0.21722 1.20608,-0.483074 1.742188,-0.810547 1.652514,-1.009414 2.823997,-2.491424 3.09375,-4.59375 0.281062,-6.005038 -1.705062,-12.030709 -4.246094,-17.552734 l -0.0039,-0.0078 -0.0039,-0.0098 c -1.388722,-3.252011 -3.693728,-6.399972 -6.558593,-8.595703 -2.148649,-1.6468 -4.595966,-2.759695 -7.236328,-3.033204 -0.432737,-0.04483 -0.870014,-0.06537 -1.3125,-0.0625 z" />
  </g>
  <g
     inkscape:groupmode="layer"
     id="layer2"
     inkscape:label="Layer 2"
     style="display:inline;mix-blend-mode:normal">
    <path
       id="path1578"
       style="display:inline;fill:#d25eb2;fill-opacity:1;stroke:none;stroke-width:1.5;stroke-linecap:round;stroke-miterlimit:4;stroke-dasharray:none;stroke-dashoffset:0;stroke-opacity:1"
       d="m 31.378906,2.2851562 c -0.982602,0.017091 -1.965434,0.2533679 -2.896484,0.6660157 -1.862101,0.8252955 -3.477991,2.369318 -4.320313,4.1894531 l -0.01367,0.029297 -0.01563,0.029297 c -1.034051,1.8025519 -1.489696,4.15109 -1.173828,6.269531 0.315869,2.118441 1.355728,3.973984 3.298828,5.019531 l 0.02734,0.01563 0.02539,0.01563 c 0.326013,0.211682 0.655822,0.412461 0.986328,0.609375 0.570022,-0.458191 1.258879,-0.820013 2.177734,-0.925781 l 0.04102,-0.0059 h 0.04102 c 1.633698,-0.007 3.101684,1.110026 3.533203,2.683593 l 0.01563,0.06055 0.0039,0.03125 c 5.40464,0.0734 11.212602,-3.91494 11.650391,-9.460937 C 44.696414,9.0452867 43.400896,6.9302472 41.474609,5.40625 39.54109,3.8765302 36.988527,2.9818704 34.615234,3.0097656 l -0.18164,0.00391 -0.160156,-0.082031 C 33.344203,2.4698074 32.361509,2.2680658 31.378906,2.2851562 Z M 29.591797,19.707031 c -0.979691,0.12554 -1.469828,0.454448 -1.779297,0.917969 -0.316794,0.474493 -0.456186,1.181045 -0.435547,2.037109 0.04093,1.697509 0.706637,3.822804 0.988281,5.427735 1.212825,5.114576 3.214265,10.222721 3.427735,15.761718 0.207532,1.244999 1.041299,2.09591 2.15625,2.548829 1.11495,0.452919 2.484069,0.445712 3.564453,-0.07422 l 0.01953,-0.0098 0.02148,-0.0098 c 2.867305,-1.172806 5.128697,-3.730341 6.785156,-6.447266 0.593269,-2.39636 2.104707,-3.824719 3.746094,-5.15625 0.319001,-0.812472 0.273284,-1.387586 0.04492,-1.822266 -0.239811,-0.456474 -0.714733,-0.818122 -1.33789,-1.011718 -1.246315,-0.387193 -2.911387,-0.02849 -3.695313,1.230468 l -0.05664,0.08984 -0.07813,0.07227 c -0.92802,0.83533 -1.442061,2.034798 -2.021485,3.347656 -0.547602,1.240758 -1.208517,2.567074 -2.435547,3.574219 -0.15327,0.294701 -0.299258,0.541128 -0.484375,0.736328 -0.202865,0.213915 -0.507946,0.425567 -0.898437,0.408203 -0.390491,-0.01736 -0.66741,-0.261361 -0.814453,-0.455078 -0.147044,-0.193717 -0.226393,-0.38055 -0.294922,-0.566406 -0.126666,-0.34353 -0.193627,-0.677115 -0.248047,-0.925782 -0.0047,-0.01726 -0.03692,-0.06224 -0.04492,-0.08203 -0.02775,-0.06866 -0.05459,-0.141777 -0.08594,-0.234375 l -0.08398,-0.25 0.08008,-0.222656 c -0.02956,-0.155474 -0.039,-0.224815 -0.08008,-0.419922 -0.178462,-0.847564 -0.430517,-1.941407 -0.49414,-2.216797 v 0.0059 c -1.15561,-4.799204 -2.868085,-9.580025 -3.414063,-14.683594 -0.240112,-0.87559 -1.143253,-1.559494 -2.050781,-1.570313 z m 14.748047,20.152344 c -0.01284,0.05186 -0.031,0.0976 -0.04297,0.150391 l 0.08984,-0.222657 c -0.01477,0.02441 -0.03202,0.04788 -0.04687,0.07227 z M 34.857422,29.414062 c 0.558804,2.051038 1.154022,4.101469 1.658203,6.195313 v 0.0039 l 0.002,0.0039 c 0.06318,0.273485 0.318207,1.373434 0.501953,2.246093 0.09187,0.43633 0.165036,0.789742 0.195313,1.046875 0.0028,0.02411 0.0011,0.07017 0.0039,0.09375 0.02071,0.09315 0.04835,0.18119 0.07227,0.28125 l 0.002,-0.0039 0.142578,-0.107422 c 1.01533,-0.754453 1.56307,-1.879 2.132812,-3.169922 0.556112,-1.260038 1.139991,-2.6607 2.322266,-3.767578 0.07013,-0.107072 0.17087,-0.171479 0.248047,-0.269531 -2.182964,-1.486082 -4.695473,-2.516278 -7.28125,-2.552735 z m -7.146484,2.015626 C 16.338055,37.134355 9.1195193,50.383989 10.761719,63.029297 12.953604,63.328525 15.122479,63.68467 17.289062,64 h 31.640626 c 1.057781,-0.357785 2.043498,-0.886979 2.917968,-1.669922 l 0.0098,-0.0078 0.0078,-0.0078 c 1.286468,-1.083581 1.793631,-2.507788 1.9375,-4.158203 0.143491,-1.646066 -0.114285,-3.474286 -0.353515,-5.150391 -1.027408,-5.521154 -3.054275,-10.900755 -6.003907,-15.666015 -0.770021,0.823635 -1.396088,1.725093 -1.685546,3.001953 l -0.02734,0.119141 -0.0625,0.103515 c -1.751401,2.89464 -4.194446,5.746326 -7.521484,7.117188 -1.502508,0.717506 -3.266256,0.718454 -4.765626,0.109375 -1.504304,-0.611084 -2.771039,-1.896053 -3.070312,-3.691407 l -0.0078,-0.04883 -0.002,-0.04883 C 30.156096,39.766419 28.869794,35.636897 27.71093,31.429709 Z" />
  </g>
  <g
     inkscape:groupmode="layer"
     id="layer3"
     inkscape:label="Layer 3"
     style="display:inline">
    <path
       id="path1581"
       style="display:inline;mix-blend-mode:normal;fill:#d25eb2;fill-opacity:1;stroke:none;stroke-width:1.5;stroke-linecap:round;stroke-miterlimit:4;stroke-dasharray:none;stroke-dashoffset:0;stroke-opacity:1"
       d="m 35.65625,14.300781 c -2.69273,-0.06217 -5.452111,1.493611 -6.859375,3.832031 l -0.01563,0.02344 -0.01563,0.02344 c -1.199949,1.690156 -1.920043,3.91857 -1.908203,6.050781 0.01179,2.123014 0.726396,4.119741 2.335937,5.537109 2.043993,1.400263 4.17179,2.724928 6.480469,3.160156 5.458521,0.800371 11.691822,-2.842249 12.97461,-8.302734 0.402132,-2.028428 -0.253367,-3.941458 -1.519532,-5.552734 -1.26911,-1.615026 -3.155765,-2.88336 -5.044922,-3.488282 h -0.0039 l -0.0059,-0.002 c -1.118748,-0.37533 -2.294752,-0.578112 -3.464844,-0.572265 l -0.175781,0.002 -0.160156,-0.07813 c -0.830078,-0.411141 -1.719566,-0.61209 -2.617143,-0.632812 z m -7.240234,16.75 c -0.125627,0.05684 -0.218441,0.09433 -0.503907,0.232422 -1.660592,0.803296 -3.234841,1.772842 -4.710937,2.882813 -1.308877,0.984228 -2.04336,1.528742 -2.992188,2.457031 0.83528,1.170475 0.9493,2.777473 0.158204,4.078125 v 0.002 c -2.339034,3.843676 -2.915843,5.936862 -3.640626,8.621094 -0.554732,2.054453 -1.422342,4.640436 -2.798828,7.671875 0.338199,0.02715 0.754518,0.08284 0.917969,0.07617 5.688579,-0.90133 4.964316,-0.679596 10.841797,-1.990235 l 0.0293,-0.0059 0.02734,-0.0039 c 0.395344,-0.05739 1.591768,-0.214803 2.421875,-0.421875 l 0.0098,-0.002 0.0098,-0.002 c 0.935181,-0.206125 1.787109,-0.416015 1.787109,-0.416015 1.975388,-0.485263 3.99067,0.73375 4.476563,2.708984 0.485263,1.975388 -0.73375,3.99067 -2.708985,4.476563 -0.0018,4.38e-4 -0.932033,0.2315 -1.964843,0.455078 -1.068976,0.231406 -2.347377,0.398628 -3.177735,0.515625 -0.2546,0.03587 -1.791526,0.39236 -3.771484,0.80664 C 21.536098,63.46329 19.864949,63.73432 18.21875,64 h 30.736328 c 0.615874,-0.21722 1.20608,-0.483074 1.742188,-0.810547 1.652514,-1.009414 2.823997,-2.491424 3.09375,-4.59375 0.281062,-6.005038 -1.705062,-12.030709 -4.246094,-17.552734 l -0.0039,-0.0078 -0.0039,-0.0098 c -1.359563,-3.183727 -3.355089,-5.96664 -6.107421,-8.142579 -2.474742,1.257484 -5.264309,1.933273 -7.990235,1.529297 l -0.01367,-0.002 -0.01367,-0.0039 c -2.659506,-0.496896 -4.932812,-1.943679 -6.99611,-3.355406 z m -11.191407,5.529297 c -0.775034,-0.006 -1.4935,0.394625 -1.896484,1.056641 -2.639652,4.337675 -3.554662,7.401601 -4.296875,10.15039 -0.741863,2.747495 -1.3343655,5.185272 -3.5390625,9.234375 -0.1453488,0.288196 -0.1853877,0.498017 -0.2617187,0.865235 -0.1168577,1.192925 0.4925413,2.652571 1.2304687,3.351562 0.8246494,0.781138 1.6811725,1.104281 2.5507815,1.34375 1.717735,0.473021 3.282706,0.449808 4.283203,0.388672 l 0.105469,-0.0078 0.117187,-0.01758 0.0078,-0.002 c 2.54302,-0.331741 5.0349,-0.808804 6.99414,-1.21875 1.959241,-0.409945 3.284745,-0.740199 3.867188,-0.822265 0.843728,-0.118881 2.101577,-0.285964 3.072265,-0.496094 1.005879,-0.217747 1.919922,-0.447266 1.919922,-0.447266 h 0.002 c 1.188206,-0.292289 1.903239,-1.471858 1.611329,-2.660156 -0.292291,-1.188206 -1.471859,-1.903239 -2.660157,-1.611328 0,0 -0.862388,0.211837 -1.814453,0.421875 l -0.0078,0.002 c -0.955121,0.235969 -2.126434,0.383173 -2.494141,0.435547 l -0.05664,0.0098 c -5.822981,1.297845 -5.192485,1.09568 -10.941406,2.007812 l -0.04102,0.0078 -0.04101,0.002 c -0.584844,0.02778 -1.457876,-0.05584 -2.216797,-0.179688 l -0.990234,-0.162109 0.435546,-0.904297 c 1.643552,-3.414845 2.508863,-6.156064 3.113282,-8.394531 0.72687,-2.691968 1.398534,-5.051329 3.808594,-9.011719 0.635815,-1.045351 0.308748,-2.385218 -0.736329,-3.021484 -0.339518,-0.206563 -0.727593,-0.317142 -1.125,-0.320313 z" />
  </g>
  <g
     inkscape:groupmode="layer"
     id="layer4"
     inkscape:label="Layer 4"
     style="display:inline">
    <path
       id="path1478"
       style="display:inline;fill:#000000;fill-opacity:1;fill-rule:evenodd;stroke:none;stroke-width:0.948767px;stroke-linecap:butt;stroke-linejoin:miter;stroke-opacity:1"
       d="M 33.972656 7.8183594 C 31.726729 7.7690264 29.418529 9.0680761 28.244141 11.019531 L 28.230469 11.044922 L 28.212891 11.068359 C 27.207388 12.484633 26.603358 14.357456 26.613281 16.144531 C 26.623181 17.924809 27.220164 19.588653 28.5625 20.769531 C 30.293046 21.954399 32.084509 23.06393 34.013672 23.427734 C 38.591343 24.097546 43.834346 21.031725 44.912109 16.460938 C 45.24738 14.772692 44.705687 13.180468 43.644531 11.830078 C 42.581258 10.476994 40.993658 9.4113456 39.410156 8.9042969 L 39.404297 8.9023438 L 39.400391 8.9003906 C 38.460503 8.585046 37.471558 8.4169714 36.490234 8.421875 L 36.3125 8.421875 L 36.154297 8.34375 C 35.463853 8.0018057 34.721299 7.8348038 33.972656 7.8183594 z M 17.007812 11.126953 C 15.853233 11.123753 14.701902 11.278026 13.589844 11.777344 C 12.156853 12.420764 10.865557 13.827235 10.279297 15.662109 L 10.189453 15.941406 L 10.203125 16.232422 C 10.585922 25.131069 17.97477 30.884434 23.525391 35.689453 C 24.221092 36.291348 25.251394 36.216991 25.853516 35.521484 C 26.455411 34.825782 26.381053 33.795481 25.685547 33.193359 C 20.191845 28.437616 14.14538 23.42297 13.568359 16.583984 L 13.552734 16.396484 L 13.628906 16.222656 C 13.924047 15.541935 14.38332 15.040525 14.943359 14.789062 C 15.673481 14.461237 16.655867 14.371541 17.912109 14.466797 C 20.150431 14.636517 22.722519 15.352808 25.214844 15.5 C 25.284314 14.387425 25.538816 13.318382 25.955078 12.291016 C 25.059396 12.282316 23.965062 12.074323 22.644531 11.830078 C 21.265617 11.575034 19.701708 11.292522 18.162109 11.175781 C 17.777846 11.146641 17.392672 11.128033 17.007812 11.126953 z M 46.271484 14.279297 C 46.424532 15.085085 46.555864 15.903072 46.382812 16.765625 L 46.380859 16.777344 L 46.376953 16.789062 C 46.317383 17.044017 46.13006 17.230628 46.050781 17.476562 C 46.48725 17.639119 46.836611 17.813347 48.253906 17.876953 C 51.20764 18.447319 53.802827 17.882749 56.107422 17.949219 L 56.113281 17.949219 L 56.117188 17.949219 C 56.671303 17.972299 57.181709 18.143299 57.595703 18.275391 L 58.529297 18.574219 L 57.996094 19.396484 C 54.313553 25.093699 47.613209 28.613712 42.84375 34.873047 C 42.286305 35.605034 42.426277 36.628023 43.158203 37.185547 C 43.889832 37.743291 44.912768 37.60453 45.470703 36.873047 C 49.88195 31.083827 57.594124 27.520995 61.693359 19.894531 L 61.84375 19.613281 L 61.878906 19.296875 L 61.878906 19.294922 C 61.972896 18.453609 61.719552 17.506407 61.294922 16.884766 C 60.845006 16.226105 60.265408 15.80846 59.669922 15.498047 C 58.466816 14.870897 57.284084 14.694291 56.246094 14.652344 L 56.240234 14.652344 L 56.228516 14.652344 C 53.350189 14.564364 50.939049 15.079552 48.78125 14.636719 L 48.642578 14.607422 L 48.5 14.603516 C 47.178248 14.558416 46.871505 14.412298 46.271484 14.279297 z M 34.207031 29.308594 C 33.81686 29.311694 33.423065 29.337389 33.025391 29.386719 C 31.421211 29.829789 29.875527 30.453268 28.404297 31.246094 C 27.841503 31.549376 27.300526 31.898378 26.759766 32.248047 C 27.913974 33.400854 28.06923 35.250277 26.986328 36.501953 C 25.85372 37.810219 23.853556 37.954447 22.544922 36.822266 C 22.349009 36.652669 22.115716 36.446491 21.914062 36.273438 C 21.427034 36.783049 20.944927 37.299133 20.490234 37.847656 C 19.35812 39.213394 18.329038 40.696005 17.417969 42.265625 C 13.905222 48.317496 13.100032 55.770988 13.056641 63.074219 C 14.942176 63.363325 16.81167 63.696454 18.673828 64 L 47.292969 64 C 47.807253 63.791307 48.300947 63.539319 48.751953 63.232422 C 50.220254 62.233285 51.282163 60.749661 51.527344 58.621094 C 51.782259 52.586415 49.993168 46.542286 47.707031 41.007812 L 47.703125 40.998047 L 47.699219 40.990234 C 47.38646 40.174344 47.021529 39.365133 46.611328 38.576172 C 46.509726 38.380755 46.398229 38.190768 46.291016 37.998047 C 45.193835 39.070261 43.50174 39.332683 42.248047 38.376953 C 40.871285 37.328243 40.603783 35.339766 41.652344 33.962891 C 41.917877 33.614411 42.225681 33.353875 42.5 33.021484 C 42.271999 32.803974 42.045115 32.58671 41.808594 32.384766 C 39.884417 30.741886 37.707634 29.639206 35.365234 29.369141 C 34.98375 29.325161 34.597203 29.305534 34.207031 29.308594 z " />
  </g>
</svg>
